<svg width="20" height="20" viewBox="0 0 20 20" fill="none" xmlns="http://www.w3.org/2000/svg">
<path d="M19.0799 17.26C19.0799 17.5134 19.0366 17.75 18.9499 17.97C18.8633 18.19 18.7399 18.3834 18.5799 18.55C18.4199 18.7167 18.2333 18.8467 18.0199 18.94C17.8066 19.0334 17.5733 19.08 17.3199 19.08H2.79992C2.54659 19.08 2.30659 19.0334 2.07992 18.94C1.85326 18.8467 1.65326 18.7167 1.47992 18.55C1.30659 18.3834 1.16992 18.19 1.06992 17.97C0.969922 17.75 0.919922 17.5134 0.919922 17.26V7.28005C0.919922 6.77338 1.09659 6.34338 1.44992 5.99005C1.80326 5.63671 2.23326 5.46005 2.73992 5.46005H17.2599C17.7666 5.46005 18.1966 5.63671 18.5499 5.99005C18.9033 6.34338 19.0799 6.77338 19.0799 7.28005V10H14.5399C14.0333 10 13.6033 10.1734 13.2499 10.52C12.8966 10.8667 12.7199 11.2934 12.7199 11.8C12.7333 12.1467 12.8066 12.4534 12.9399 12.72C13.0466 12.9467 13.2233 13.1534 13.4699 13.34C13.7166 13.5267 14.0733 13.62 14.5399 13.62H19.0799V17.26ZM16.3599 4.54005H7.27992C7.99992 4.16671 8.67992 3.80671 9.31992 3.46005C9.87992 3.16671 10.4333 2.87338 10.9799 2.58005C11.5266 2.28671 11.9533 2.06005 12.2599 1.90005C12.7266 1.64671 13.1433 1.53005 13.5099 1.55005C13.8766 1.57005 14.1866 1.63338 14.4399 1.74005C14.7333 1.88671 14.9866 2.08005 15.1999 2.32005L16.3599 4.54005ZM13.6399 11.8C13.6399 11.5467 13.7266 11.3334 13.8999 11.16C14.0733 10.9867 14.2866 10.9 14.5399 10.9C14.7933 10.9 15.0066 10.9867 15.1799 11.16C15.3533 11.3334 15.4399 11.5467 15.4399 11.8C15.4399 12.0534 15.3533 12.27 15.1799 12.45C15.0066 12.63 14.7933 12.72 14.5399 12.72C14.2866 12.72 14.0733 12.63 13.8999 12.45C13.7266 12.27 13.6399 12.0534 13.6399 11.8Z" fill="#3AC89F"/>
</svg>
